<svg xmlns="http://www.w3.org/2000/svg" width="250.124" height="308.937" viewBox="0 0 250 250"><defs><style>.cls-1{fill:#e1e3e8;}</style></defs><title>cougars-logo</title><g id="Layer_2" data-name="Layer 2"><g id="Layer_1-2" data-name="Layer 1"><path class="cls-1" d="M153,105.83s32.89-19.78,71.5-1.67c0,0,35,19.54,0,39.33s-81.74,1.19-83.41-15.26c0,0-.48,13.35,24.07,22.41s53.15,2.62,53.15,2.62S250,144.68,250,126.09s-23.59-26.22-23.59-26.22-11.92-6.19-41-5.24C185.42,94.63,160.63,98,153,105.83Z"/><path class="cls-1" d="M105.59,97s-19.78-32.89-1.67-71.5c0,0,19.55-35,39.33,0s1.19,81.75-15.26,83.41c0,0,13.35.48,22.41-24.07S153,31.7,153,31.7,144.44,0,125.85,0,99.63,23.59,99.63,23.59s-6.19,11.92-5.24,41C94.39,64.59,97.73,89.37,105.59,97Z"/><path class="cls-1" d="M97,144.41s-32.89,19.78-71.5,1.67c0,0-35-19.54,0-39.32s81.75-1.2,83.41,15.25c0,0,.48-13.35-24.07-22.4S31.7,97,31.7,97,0,105.56,0,124.15s23.59,26.22,23.59,26.22,11.92,6.2,41,5.24C64.59,155.61,89.37,152.28,97,144.41Z"/><path class="cls-1" d="M144.41,153s19.78,32.89,1.67,71.5c0,0-19.54,35-39.32,0s-1.2-81.74,15.25-83.41c0,0-13.35-.48-22.4,24.07S97,218.31,97,218.31,105.56,250,124.15,250s26.22-23.59,26.22-23.59,6.2-11.92,5.24-41C155.61,185.42,152.28,160.63,144.41,153Z"/></g></g></svg>